<mxfile host="app.diagrams.net" modified="2023-04-11T03:21:32.535Z" agent="Mozilla/5.0 (Windows NT 10.0; Win64; x64) AppleWebKit/537.36 (KHTML, like Gecko) Chrome/111.0.0.0 Safari/537.36" etag="gg70icSd6oMH0h4-ZLXl" version="21.1.5" type="github">
  <diagram name="페이지-1" id="dfL3iifFtfKot43Jdbrb">
    <mxGraphModel dx="2688" dy="2153" grid="0" gridSize="10" guides="1" tooltips="1" connect="1" arrows="1" fold="1" page="0" pageScale="1" pageWidth="827" pageHeight="1169" math="0" shadow="0">
      <root>
        <mxCell id="0" />
        <mxCell id="1" parent="0" />
        <mxCell id="uP9ncjPJOE4GII4HNcqP-1" value="이용자" style="shape=umlActor;verticalLabelPosition=bottom;verticalAlign=top;html=1;fontSize=16;" vertex="1" parent="1">
          <mxGeometry x="34" y="-292" width="45" height="79" as="geometry" />
        </mxCell>
        <mxCell id="uP9ncjPJOE4GII4HNcqP-14" value="게시판 서비스" style="shape=umlFrame;whiteSpace=wrap;html=1;pointerEvents=0;fontSize=16;width=144;height=28;" vertex="1" parent="1">
          <mxGeometry x="137" y="-426" width="578" height="581" as="geometry" />
        </mxCell>
        <mxCell id="uP9ncjPJOE4GII4HNcqP-32" value="" style="edgeStyle=none;rounded=0;orthogonalLoop=1;jettySize=auto;html=1;fontSize=12;startSize=8;endSize=8;exitX=0;exitY=0.75;exitDx=0;exitDy=0;entryX=1;entryY=0.3333333333333333;entryDx=0;entryDy=0;entryPerimeter=0;endArrow=none;endFill=0;" edge="1" parent="1" source="uP9ncjPJOE4GII4HNcqP-19" target="uP9ncjPJOE4GII4HNcqP-1">
          <mxGeometry relative="1" as="geometry">
            <mxPoint x="82" y="-252" as="targetPoint" />
          </mxGeometry>
        </mxCell>
        <mxCell id="uP9ncjPJOE4GII4HNcqP-19" value="회원 가입" style="rounded=1;whiteSpace=wrap;html=1;arcSize=40;fontColor=#000000;fillColor=#ffffc0;strokeColor=#ff0000;fontSize=16;" vertex="1" parent="1">
          <mxGeometry x="173" y="-298" width="131" height="48" as="geometry" />
        </mxCell>
        <mxCell id="uP9ncjPJOE4GII4HNcqP-49" value="" style="rounded=0;hachureGap=4;orthogonalLoop=1;jettySize=auto;html=1;fontFamily=Architects Daughter;fontSource=https%3A%2F%2Ffonts.googleapis.com%2Fcss%3Ffamily%3DArchitects%2BDaughter;fontSize=16;dashed=1;" edge="1" parent="1" target="uP9ncjPJOE4GII4HNcqP-23">
          <mxGeometry relative="1" as="geometry">
            <mxPoint x="301" y="-195" as="sourcePoint" />
          </mxGeometry>
        </mxCell>
        <mxCell id="uP9ncjPJOE4GII4HNcqP-50" value="" style="rounded=0;hachureGap=4;orthogonalLoop=1;jettySize=auto;html=1;fontFamily=Architects Daughter;fontSource=https%3A%2F%2Ffonts.googleapis.com%2Fcss%3Ffamily%3DArchitects%2BDaughter;fontSize=16;endArrow=none;endFill=0;entryX=1;entryY=0.3333333333333333;entryDx=0;entryDy=0;entryPerimeter=0;exitX=0;exitY=0.25;exitDx=0;exitDy=0;" edge="1" parent="1" source="uP9ncjPJOE4GII4HNcqP-21" target="uP9ncjPJOE4GII4HNcqP-1">
          <mxGeometry relative="1" as="geometry" />
        </mxCell>
        <mxCell id="uP9ncjPJOE4GII4HNcqP-21" value="게시판 보기" style="rounded=1;whiteSpace=wrap;html=1;arcSize=40;fontColor=#000000;fillColor=#ffffc0;strokeColor=#ff0000;fontSize=16;" vertex="1" parent="1">
          <mxGeometry x="167" y="-203" width="143" height="52" as="geometry" />
        </mxCell>
        <mxCell id="uP9ncjPJOE4GII4HNcqP-37" style="hachureGap=4;orthogonalLoop=1;jettySize=auto;html=1;exitX=0;exitY=0.5;exitDx=0;exitDy=0;fontFamily=Architects Daughter;fontSource=https%3A%2F%2Ffonts.googleapis.com%2Fcss%3Ffamily%3DArchitects%2BDaughter;fontSize=16;strokeColor=default;endArrow=none;endFill=0;entryX=1;entryY=0.3333333333333333;entryDx=0;entryDy=0;entryPerimeter=0;" edge="1" parent="1" source="uP9ncjPJOE4GII4HNcqP-22" target="uP9ncjPJOE4GII4HNcqP-1">
          <mxGeometry relative="1" as="geometry" />
        </mxCell>
        <mxCell id="uP9ncjPJOE4GII4HNcqP-22" value="게시글 보기" style="rounded=1;whiteSpace=wrap;html=1;arcSize=40;fontColor=#000000;fillColor=#ffffc0;strokeColor=#ff0000;fontSize=16;" vertex="1" parent="1">
          <mxGeometry x="160" y="-74" width="145" height="50" as="geometry" />
        </mxCell>
        <mxCell id="uP9ncjPJOE4GII4HNcqP-35" style="hachureGap=4;orthogonalLoop=1;jettySize=auto;html=1;exitX=0;exitY=0.5;exitDx=0;exitDy=0;fontFamily=Architects Daughter;fontSource=https%3A%2F%2Ffonts.googleapis.com%2Fcss%3Ffamily%3DArchitects%2BDaughter;fontSize=16;endArrow=none;endFill=0;rounded=0;" edge="1" parent="1" source="uP9ncjPJOE4GII4HNcqP-23">
          <mxGeometry relative="1" as="geometry">
            <mxPoint x="78" y="-266" as="targetPoint" />
          </mxGeometry>
        </mxCell>
        <mxCell id="uP9ncjPJOE4GII4HNcqP-40" style="rounded=0;hachureGap=4;orthogonalLoop=1;jettySize=auto;html=1;exitX=1;exitY=0.5;exitDx=0;exitDy=0;fontFamily=Architects Daughter;fontSource=https%3A%2F%2Ffonts.googleapis.com%2Fcss%3Ffamily%3DArchitects%2BDaughter;fontSize=16;endArrow=classic;endFill=1;dashed=1;entryX=0;entryY=0.5;entryDx=0;entryDy=0;startArrow=none;startFill=0;" edge="1" parent="1">
          <mxGeometry relative="1" as="geometry">
            <mxPoint x="431.0000000000001" y="-378.62" as="sourcePoint" />
            <mxPoint x="569" y="-378.62" as="targetPoint" />
          </mxGeometry>
        </mxCell>
        <mxCell id="uP9ncjPJOE4GII4HNcqP-44" value="&amp;lt;&amp;lt;include&amp;gt;&amp;gt;" style="edgeLabel;html=1;align=center;verticalAlign=middle;resizable=0;points=[];fontSize=20;fontFamily=Architects Daughter;" vertex="1" connectable="0" parent="uP9ncjPJOE4GII4HNcqP-40">
          <mxGeometry x="0.4448" y="-1" relative="1" as="geometry">
            <mxPoint x="-31" y="-3" as="offset" />
          </mxGeometry>
        </mxCell>
        <mxCell id="uP9ncjPJOE4GII4HNcqP-23" value="회원 로그인" style="rounded=1;whiteSpace=wrap;html=1;arcSize=40;fontColor=#000000;fillColor=#ffffc0;strokeColor=#ff0000;fontSize=16;" vertex="1" parent="1">
          <mxGeometry x="308" y="-398" width="120" height="40" as="geometry" />
        </mxCell>
        <mxCell id="uP9ncjPJOE4GII4HNcqP-68" style="rounded=0;hachureGap=4;orthogonalLoop=1;jettySize=auto;html=1;exitX=1;exitY=0.5;exitDx=0;exitDy=0;fontFamily=Architects Daughter;fontSource=https%3A%2F%2Ffonts.googleapis.com%2Fcss%3Ffamily%3DArchitects%2BDaughter;fontSize=16;endArrow=none;endFill=0;entryX=0;entryY=0.5;entryDx=0;entryDy=0;" edge="1" parent="1" source="uP9ncjPJOE4GII4HNcqP-24" target="uP9ncjPJOE4GII4HNcqP-64">
          <mxGeometry relative="1" as="geometry">
            <mxPoint x="813" y="-256" as="targetPoint" />
          </mxGeometry>
        </mxCell>
        <mxCell id="uP9ncjPJOE4GII4HNcqP-24" value="인증" style="rounded=1;whiteSpace=wrap;html=1;arcSize=40;fontColor=#000000;fillColor=#ffffc0;strokeColor=#ff0000;fontSize=16;" vertex="1" parent="1">
          <mxGeometry x="566" y="-398" width="120" height="40" as="geometry" />
        </mxCell>
        <mxCell id="uP9ncjPJOE4GII4HNcqP-25" value="로그인 실패" style="rounded=1;whiteSpace=wrap;html=1;arcSize=40;fontColor=#000000;fillColor=#ffffc0;strokeColor=#ff0000;fontSize=16;" vertex="1" parent="1">
          <mxGeometry x="566" y="-328" width="117" height="40" as="geometry" />
        </mxCell>
        <mxCell id="uP9ncjPJOE4GII4HNcqP-53" value="" style="rounded=0;hachureGap=4;orthogonalLoop=1;jettySize=auto;html=1;fontFamily=Architects Daughter;fontSource=https%3A%2F%2Ffonts.googleapis.com%2Fcss%3Ffamily%3DArchitects%2BDaughter;fontSize=16;dashed=1;" edge="1" parent="1" source="uP9ncjPJOE4GII4HNcqP-28">
          <mxGeometry relative="1" as="geometry">
            <mxPoint x="308" y="-176" as="targetPoint" />
          </mxGeometry>
        </mxCell>
        <mxCell id="uP9ncjPJOE4GII4HNcqP-28" value="게시판 정렬" style="rounded=1;whiteSpace=wrap;html=1;arcSize=50;fontColor=#000000;fillColor=#ffffc0;strokeColor=#ff0000;fontSize=16;" vertex="1" parent="1">
          <mxGeometry x="409" y="-255" width="120" height="40" as="geometry" />
        </mxCell>
        <mxCell id="uP9ncjPJOE4GII4HNcqP-29" value="게시판 검색" style="rounded=1;whiteSpace=wrap;html=1;arcSize=40;fontColor=#000000;fillColor=#ffffc0;strokeColor=#ff0000;fontSize=16;" vertex="1" parent="1">
          <mxGeometry x="409" y="-140" width="120" height="40" as="geometry" />
        </mxCell>
        <mxCell id="uP9ncjPJOE4GII4HNcqP-30" value="게시글 쓰기, 수정, 삭제" style="rounded=1;whiteSpace=wrap;html=1;arcSize=40;fontColor=#000000;fillColor=#ffffc0;strokeColor=#ff0000;fontSize=16;" vertex="1" parent="1">
          <mxGeometry x="409" y="-27" width="180" height="40" as="geometry" />
        </mxCell>
        <mxCell id="uP9ncjPJOE4GII4HNcqP-31" value="댓글 보기, 쓰기, 수정, 삭제" style="rounded=1;whiteSpace=wrap;html=1;arcSize=40;fontColor=#000000;fillColor=#ffffc0;strokeColor=#ff0000;fontSize=16;" vertex="1" parent="1">
          <mxGeometry x="409" y="59" width="161" height="47" as="geometry" />
        </mxCell>
        <mxCell id="uP9ncjPJOE4GII4HNcqP-43" value="&amp;lt;&amp;lt;extend&amp;gt;&amp;gt;" style="rounded=0;hachureGap=4;orthogonalLoop=1;jettySize=auto;html=1;exitX=1;exitY=0.5;exitDx=0;exitDy=0;entryX=0;entryY=0.5;entryDx=0;entryDy=0;fontFamily=Architects Daughter;fontSource=https%3A%2F%2Ffonts.googleapis.com%2Fcss%3Ffamily%3DArchitects%2BDaughter;fontSize=16;endArrow=none;endFill=0;dashed=1;startArrow=classic;startFill=1;" edge="1" parent="1" source="uP9ncjPJOE4GII4HNcqP-23" target="uP9ncjPJOE4GII4HNcqP-25">
          <mxGeometry x="0.0814" y="-6" relative="1" as="geometry">
            <mxPoint x="438" y="-368" as="sourcePoint" />
            <mxPoint x="528" y="-368" as="targetPoint" />
            <mxPoint as="offset" />
          </mxGeometry>
        </mxCell>
        <mxCell id="uP9ncjPJOE4GII4HNcqP-52" value="" style="rounded=0;hachureGap=4;orthogonalLoop=1;jettySize=auto;html=1;fontFamily=Architects Daughter;fontSource=https%3A%2F%2Ffonts.googleapis.com%2Fcss%3Ffamily%3DArchitects%2BDaughter;fontSize=16;dashed=1;exitX=1;exitY=0.25;exitDx=0;exitDy=0;entryX=0.433;entryY=0.975;entryDx=0;entryDy=0;entryPerimeter=0;" edge="1" parent="1" source="uP9ncjPJOE4GII4HNcqP-22" target="uP9ncjPJOE4GII4HNcqP-23">
          <mxGeometry relative="1" as="geometry">
            <mxPoint x="311" y="-185" as="sourcePoint" />
            <mxPoint x="360" y="-352" as="targetPoint" />
          </mxGeometry>
        </mxCell>
        <mxCell id="uP9ncjPJOE4GII4HNcqP-54" value="" style="rounded=0;hachureGap=4;orthogonalLoop=1;jettySize=auto;html=1;fontFamily=Architects Daughter;fontSource=https%3A%2F%2Ffonts.googleapis.com%2Fcss%3Ffamily%3DArchitects%2BDaughter;fontSize=16;exitX=0;exitY=0.25;exitDx=0;exitDy=0;entryX=1;entryY=0.5;entryDx=0;entryDy=0;dashed=1;" edge="1" parent="1" source="uP9ncjPJOE4GII4HNcqP-29" target="uP9ncjPJOE4GII4HNcqP-21">
          <mxGeometry relative="1" as="geometry">
            <mxPoint x="419" y="-196" as="sourcePoint" />
            <mxPoint x="305" y="-185" as="targetPoint" />
          </mxGeometry>
        </mxCell>
        <mxCell id="uP9ncjPJOE4GII4HNcqP-56" value="" style="rounded=0;hachureGap=4;orthogonalLoop=1;jettySize=auto;html=1;fontFamily=Architects Daughter;fontSource=https%3A%2F%2Ffonts.googleapis.com%2Fcss%3Ffamily%3DArchitects%2BDaughter;fontSize=16;exitX=0;exitY=0.25;exitDx=0;exitDy=0;dashed=1;" edge="1" parent="1" source="uP9ncjPJOE4GII4HNcqP-30">
          <mxGeometry relative="1" as="geometry">
            <mxPoint x="394" y="-121" as="sourcePoint" />
            <mxPoint x="304" y="-55" as="targetPoint" />
          </mxGeometry>
        </mxCell>
        <mxCell id="uP9ncjPJOE4GII4HNcqP-57" value="" style="rounded=0;hachureGap=4;orthogonalLoop=1;jettySize=auto;html=1;fontFamily=Architects Daughter;fontSource=https%3A%2F%2Ffonts.googleapis.com%2Fcss%3Ffamily%3DArchitects%2BDaughter;fontSize=16;exitX=0;exitY=0.5;exitDx=0;exitDy=0;dashed=1;" edge="1" parent="1" source="uP9ncjPJOE4GII4HNcqP-31">
          <mxGeometry relative="1" as="geometry">
            <mxPoint x="316" y="-1" as="sourcePoint" />
            <mxPoint x="307" y="-57" as="targetPoint" />
          </mxGeometry>
        </mxCell>
        <mxCell id="uP9ncjPJOE4GII4HNcqP-64" value="DB" style="html=1;dropTarget=0;whiteSpace=wrap;hachureGap=4;fontFamily=Architects Daughter;fontSource=https%3A%2F%2Ffonts.googleapis.com%2Fcss%3Ffamily%3DArchitects%2BDaughter;fontSize=20;strokeColor=default;" vertex="1" parent="1">
          <mxGeometry x="817" y="-322" width="137" height="131" as="geometry" />
        </mxCell>
        <mxCell id="uP9ncjPJOE4GII4HNcqP-69" style="rounded=0;hachureGap=4;orthogonalLoop=1;jettySize=auto;html=1;fontFamily=Architects Daughter;fontSource=https%3A%2F%2Ffonts.googleapis.com%2Fcss%3Ffamily%3DArchitects%2BDaughter;fontSize=16;endArrow=none;endFill=0;" edge="1" parent="1">
          <mxGeometry relative="1" as="geometry">
            <mxPoint x="313" y="-176" as="sourcePoint" />
            <mxPoint x="813" y="-256" as="targetPoint" />
          </mxGeometry>
        </mxCell>
        <mxCell id="uP9ncjPJOE4GII4HNcqP-70" style="rounded=0;hachureGap=4;orthogonalLoop=1;jettySize=auto;html=1;fontFamily=Architects Daughter;fontSource=https%3A%2F%2Ffonts.googleapis.com%2Fcss%3Ffamily%3DArchitects%2BDaughter;fontSize=16;endArrow=none;endFill=0;startArrow=none;startFill=0;exitX=1;exitY=0.5;exitDx=0;exitDy=0;entryX=0;entryY=0.5;entryDx=0;entryDy=0;" edge="1" parent="1" source="uP9ncjPJOE4GII4HNcqP-22" target="uP9ncjPJOE4GII4HNcqP-64">
          <mxGeometry relative="1" as="geometry">
            <mxPoint x="325" y="-64" as="sourcePoint" />
            <mxPoint x="771" y="-187" as="targetPoint" />
            <Array as="points">
              <mxPoint x="597" y="-92" />
            </Array>
          </mxGeometry>
        </mxCell>
        <mxCell id="uP9ncjPJOE4GII4HNcqP-71" style="rounded=0;hachureGap=4;orthogonalLoop=1;jettySize=auto;html=1;fontFamily=Architects Daughter;fontSource=https%3A%2F%2Ffonts.googleapis.com%2Fcss%3Ffamily%3DArchitects%2BDaughter;fontSize=16;endArrow=none;endFill=0;startArrow=none;startFill=0;entryX=0;entryY=0.5;entryDx=0;entryDy=0;" edge="1" parent="1" source="uP9ncjPJOE4GII4HNcqP-30" target="uP9ncjPJOE4GII4HNcqP-64">
          <mxGeometry relative="1" as="geometry">
            <mxPoint x="315" y="-39" as="sourcePoint" />
            <mxPoint x="769" y="-182" as="targetPoint" />
            <Array as="points">
              <mxPoint x="607" y="-82" />
            </Array>
          </mxGeometry>
        </mxCell>
        <mxCell id="uP9ncjPJOE4GII4HNcqP-72" style="rounded=0;hachureGap=4;orthogonalLoop=1;jettySize=auto;html=1;fontFamily=Architects Daughter;fontSource=https%3A%2F%2Ffonts.googleapis.com%2Fcss%3Ffamily%3DArchitects%2BDaughter;fontSize=16;endArrow=none;endFill=0;startArrow=none;startFill=0;exitX=0.75;exitY=0;exitDx=0;exitDy=0;entryX=0;entryY=0.5;entryDx=0;entryDy=0;" edge="1" parent="1" source="uP9ncjPJOE4GII4HNcqP-31" target="uP9ncjPJOE4GII4HNcqP-64">
          <mxGeometry relative="1" as="geometry">
            <mxPoint x="538" y="-17" as="sourcePoint" />
            <mxPoint x="779" y="-172" as="targetPoint" />
          </mxGeometry>
        </mxCell>
      </root>
    </mxGraphModel>
  </diagram>
</mxfile>
